<svg xmlns="http://www.w3.org/2000/svg" width="21" height="21" viewBox="0 0 21 21">
  <g id="Group_326" data-name="Group 326" transform="translate(-40.805 -261.806)">
    <g id="vuesax_linear_card-send" data-name="vuesax/linear/card-send" transform="translate(40.805 261.806)">
      <g id="card-send" transform="translate(0 0)">
        <path id="Vector" d="M0,0H10.706" transform="translate(2.713 7.438)" fill="none" stroke="#fff" stroke-linecap="round" stroke-linejoin="round" stroke-width="1.5"/>
        <path id="Vector-2" data-name="Vector" d="M0,0H1.713" transform="translate(5.26 14.438)" fill="none" stroke="#fff" stroke-linecap="round" stroke-linejoin="round" stroke-width="1.5"/>
        <path id="Vector-3" data-name="Vector" d="M0,0H3.426" transform="translate(9.226 14.438)" fill="none" stroke="#fff" stroke-linecap="round" stroke-linejoin="round" stroke-width="1.5"/>
        <path id="Vector-4" data-name="Vector" d="M17.574,9.294V11.13c0,3.1-.782,3.875-3.9,3.875H3.9C.782,15,0,14.228,0,11.13V3.875C0,.777.782,0,3.9,0h7.082" transform="translate(1.713 2.998)" fill="none" stroke="#fff" stroke-linecap="round" stroke-linejoin="round" stroke-width="1.5"/>
        <path id="Vector-5" data-name="Vector" d="M0,5.139V0L1.713,1.713" transform="translate(17.574 2.998)" fill="none" stroke="#fff" stroke-linecap="round" stroke-linejoin="round" stroke-width="1.5"/>
        <path id="Vector-6" data-name="Vector" d="M1.713,0,0,1.713" transform="translate(15.78 2.998)" fill="none" stroke="#fff" stroke-linecap="round" stroke-linejoin="round" stroke-width="1.5"/>
        <path id="Vector-7" data-name="Vector" d="M0,0H21V21H0Z" fill="none" opacity="0"/>
      </g>
    </g>
  </g>
</svg>
