<svg id="edit-2" xmlns="http://www.w3.org/2000/svg" width="17.333" height="17.333" viewBox="0 0 17.333 17.333">
  <path id="Vector" d="M6.69,1.039.761,7.315A2.2,2.2,0,0,0,.277,8.348L.01,10.688A1.1,1.1,0,0,0,1.36,11.967l2.326-.4a2.074,2.074,0,0,0,1-.542l5.929-6.276c1.026-1.083,1.488-2.318-.108-3.828S7.716-.044,6.69,1.039Z" transform="translate(2.887 1.561)" fill="none" stroke="#fff" stroke-linecap="round" stroke-linejoin="round" stroke-width="1"/>
  <path id="Vector-2" data-name="Vector" d="M0,0A4.424,4.424,0,0,0,3.936,3.719" transform="translate(8.587 3.647)" fill="none" stroke="#fff" stroke-linecap="round" stroke-linejoin="round" stroke-width="1"/>
  <path id="Vector-3" data-name="Vector" d="M0,0H13" transform="translate(2.167 15.889)" fill="none" stroke="#fff" stroke-linecap="round" stroke-linejoin="round" stroke-width="1"/>
  <path id="Vector-4" data-name="Vector" d="M0,0H17.333V17.333H0Z" fill="none" opacity="0"/>
</svg>
