<svg id="home-2" xmlns="http://www.w3.org/2000/svg" width="23.265" height="23.265" viewBox="0 0 23.265 23.265">
  <path id="Vector" d="M6.8.8,1.58,4.869A4.613,4.613,0,0,0,0,8.087V15.27a4.1,4.1,0,0,0,4.081,4.091H15.306a4.094,4.094,0,0,0,4.081-4.081V8.223a4.579,4.579,0,0,0-1.745-3.344L11.652.681A4.349,4.349,0,0,0,6.8.8Z" transform="translate(1.939 1.956)" fill="#022121" stroke="#fff" stroke-linecap="round" stroke-linejoin="round" stroke-width="1.5"/>
  <path id="Vector-2" data-name="Vector" d="M0,2.908V0" transform="translate(11.632 14.531)" fill="#022121" stroke="#fff" stroke-linecap="round" stroke-linejoin="round" stroke-width="1.5"/>
  <g id="Vector-3" data-name="Vector" fill="#022121" opacity="0">
    <path d="M 22.76471519470215 22.76471519470215 L 0.5000047087669373 22.76471519470215 L 0.5000047087669373 0.5000047087669373 L 22.76471519470215 0.5000047087669373 L 22.76471519470215 22.76471519470215 Z" stroke="none"/>
    <path d="M 0.9999942779541016 0.9999942779541016 L 0.9999942779541016 22.26470565795898 L 22.26470565795898 22.26470565795898 L 22.26470565795898 0.9999942779541016 L 0.9999942779541016 0.9999942779541016 M -5.7220458984375e-06 -5.7220458984375e-06 L 23.26470565795898 -5.7220458984375e-06 L 23.26470565795898 23.26470565795898 L -5.7220458984375e-06 23.26470565795898 L -5.7220458984375e-06 -5.7220458984375e-06 Z" stroke="none" fill="#fff"/>
  </g>
</svg>
