<svg id="Group_352" data-name="Group 352" xmlns="http://www.w3.org/2000/svg" width="80.306" height="100.921" viewBox="0 0 80.306 100.921">
  <path id="Subtraction_1" data-name="Subtraction 1" d="M39.655,75.9a40.309,40.309,0,0,1-28.04-11.116,36.809,36.809,0,0,1,0-53.671A40.31,40.31,0,0,1,39.655,0,40.312,40.312,0,0,1,67.7,11.115a36.809,36.809,0,0,1,0,53.671A40.312,40.312,0,0,1,39.655,75.9Zm0-58.652c-11.927,0-21.63,9.286-21.63,20.7s9.7,20.7,21.63,20.7,21.631-9.287,21.631-20.7S51.582,17.25,39.655,17.25Z" transform="translate(0 0)" fill="#fff"/>
  <line id="Line_1" data-name="Line 1" x2="67.299" transform="translate(7.507 95.421)" fill="none" stroke="#3ffcf6" stroke-linecap="round" stroke-width="11"/>
</svg>
