<svg xmlns="http://www.w3.org/2000/svg" width="21" height="21.072" viewBox="0 0 21 21.072">
  <g id="vuesax_linear_notification-bing" data-name="vuesax/linear/notification-bing" transform="translate(-108 -188)">
    <g id="notification-bing" transform="translate(108 188)">
      <path id="Vector" d="M0,0V3.02" transform="translate(10.5 5.602)" fill="none" stroke="#fff" stroke-linecap="round" stroke-width="1.5"/>
      <path id="Vector-2" data-name="Vector" d="M7.7,0A5.9,5.9,0,0,0,1.95,6.04v1.9a4.889,4.889,0,0,1-.544,2.068l-1.1,1.923a1.966,1.966,0,0,0,1.037,2.947,19.259,19.259,0,0,0,12.725,0,2.05,2.05,0,0,0,1.037-2.947l-1.1-1.923a4.924,4.924,0,0,1-.544-2.068V6.04A5.936,5.936,0,0,0,7.7,0Z" transform="translate(2.814 1.814)" fill="none" stroke="#fff" stroke-linecap="round" stroke-width="1.5"/>
      <path id="Vector-3" data-name="Vector" d="M6.04,0A3.03,3.03,0,0,1,3.02,3.02,3.025,3.025,0,0,1,.889,2.131,3.025,3.025,0,0,1,0,0" transform="translate(7.48 17.302)" fill="none" stroke="#fff" stroke-width="1.5"/>
      <g id="Vector-4" data-name="Vector" fill="none" opacity="0">
        <path d="M0,0H21V21H0Z" stroke="none"/>
        <path d="M 1 1 L 1 20 L 20 20 L 20 1 L 1 1 M 0 0 L 21 0 L 21 21 L 0 21 L 0 0 Z" stroke="none" fill="#fff"/>
      </g>
    </g>
  </g>
</svg>
