<svg xmlns="http://www.w3.org/2000/svg" width="22" height="22" viewBox="0 0 22 22">
  <g id="vuesax_linear_security-safe" data-name="vuesax/linear/security-safe" transform="translate(-364 -316)">
    <g id="security-safe" transform="translate(364 316)">
      <path id="Vector" d="M16.335,8.353a10.564,10.564,0,0,1-7.7,9.909,1.8,1.8,0,0,1-.935,0A10.564,10.564,0,0,1,0,8.353V4.329A2.2,2.2,0,0,1,1.274,2.441L6.38.351a4.755,4.755,0,0,1,3.584,0l5.106,2.09a2.219,2.219,0,0,1,1.274,1.888Z" transform="translate(2.832 1.84)" fill="none" stroke="#168d89" stroke-linecap="round" stroke-linejoin="round" stroke-width="1.5"/>
      <g id="Group" transform="translate(9.167 7.792)">
        <path id="Vector-2" data-name="Vector" d="M3.667,1.833A1.833,1.833,0,1,1,1.833,0,1.833,1.833,0,0,1,3.667,1.833Z" fill="none" stroke="#168d89" stroke-linecap="round" stroke-linejoin="round" stroke-width="1.5"/>
        <path id="Vector-3" data-name="Vector" d="M0,0V2.75" transform="translate(1.833 3.667)" fill="none" stroke="#168d89" stroke-linecap="round" stroke-linejoin="round" stroke-width="1.5"/>
      </g>
      <path id="Vector-4" data-name="Vector" d="M0,0H22V22H0Z" transform="translate(22 22) rotate(180)" fill="none" opacity="0"/>
    </g>
  </g>
</svg>
